<svg width="419" height="242" viewBox="0 0 419 242" fill="none" xmlns="http://www.w3.org/2000/svg">
<path d="M12.3236 147.12C10.8132 148.422 9.80358 149.86 9.29463 151.344L7.32916 151.12C6.76099 152.777 6.76099 154.485 7.32914 156.142L9.29463 155.917C9.80356 157.402 10.8132 158.84 12.3236 160.142L10.6588 160.786C11.4578 161.475 12.3833 162.128 13.4346 162.735L16.5293 164.522L17.946 163.704L24.1353 167.277L22.7185 168.095L28.9078 171.668L30.3246 170.85L36.5139 174.424L35.0971 175.242L41.2864 178.815L42.7031 177.997L48.8924 181.571L47.4756 182.389L53.6649 185.962L55.0817 185.144L61.2709 188.717L59.8542 189.535L66.0434 193.109L67.4602 192.291L73.6495 195.864L72.2327 196.682L78.422 200.255L79.8388 199.437L86.028 203.011L84.6113 203.829L90.8005 207.402L92.2173 206.584L98.4066 210.158L96.9898 210.976L103.179 214.549L104.596 213.731L110.785 217.304L109.368 218.122L115.558 221.696L116.974 220.878L123.164 224.451L121.747 225.269L127.936 228.842L129.353 228.024L135.542 231.598L134.125 232.416L137.22 234.203C138.271 234.81 139.403 235.344 140.596 235.805L141.711 234.844C143.966 235.716 146.458 236.299 149.028 236.593L148.639 237.728C151.509 238.056 154.468 238.056 157.338 237.728L156.949 236.593C159.52 236.299 162.011 235.716 164.267 234.844L165.381 235.805C166.574 235.344 167.706 234.81 168.757 234.203L171.873 232.404L170.457 231.586L176.688 227.988L178.105 228.806L184.337 225.208L182.92 224.39L189.152 220.792L190.569 221.61L196.8 218.012L195.384 217.194L201.615 213.596L203.032 214.414L209.264 210.816L207.847 209.998L214.079 206.4L215.496 207.218L221.727 203.62L220.311 202.802L226.542 199.204L227.959 200.022L234.191 196.424L232.774 195.607L239.006 192.009L240.423 192.827L246.654 189.229L245.238 188.411L251.469 184.813L252.886 185.631L259.118 182.033L257.701 181.215L263.933 177.617L265.35 178.435L271.582 174.837L270.165 174.019L276.397 170.421L277.813 171.239L284.045 167.641L282.628 166.823L288.86 163.225L290.277 164.043L296.509 160.445L295.092 159.627L301.324 156.03L302.74 156.848L308.972 153.25L307.555 152.432L313.787 148.834L315.204 149.652L321.436 146.054L320.019 145.236L326.251 141.638L327.667 142.456L333.899 138.858L332.482 138.04L338.714 134.442L340.131 135.26L346.363 131.662L344.946 130.844L351.178 127.246L352.594 128.064L358.826 124.466L357.409 123.648L363.641 120.05L365.058 120.868L371.29 117.271L369.873 116.453L376.105 112.855L377.521 113.673L383.753 110.075L382.336 109.257L388.568 105.659L389.985 106.477L396.217 102.879L394.8 102.061L401.032 98.463L402.448 99.281L405.564 97.482C406.616 96.8751 407.541 96.2217 408.34 95.5329L406.675 94.8892C408.186 93.587 409.195 92.1487 409.704 90.6645L411.67 90.8891C412.238 89.2323 412.238 87.5236 411.67 85.8667L409.704 86.0914C409.195 84.6072 408.186 83.1688 406.675 81.8667L408.34 81.223C407.541 80.5343 406.616 79.8808 405.564 79.2739L402.321 77.4011L400.904 78.2191L394.416 74.4735L395.833 73.6555L389.346 69.9099L387.929 70.7279L381.441 66.9823L382.858 66.1644L376.37 62.4188L374.954 63.2368L368.466 59.4912L369.883 58.6732L363.395 54.9276L361.979 55.7456L355.491 52L356.908 51.1821L350.42 47.4365L349.004 48.2545L342.516 44.5089L343.933 43.6909L337.445 39.9453L336.029 40.7633L329.541 37.0177L330.958 36.1998L324.47 32.4542L323.054 33.2722L316.566 29.5266L317.983 28.7086L314.739 26.8358C313.682 26.2254 312.529 25.6826 311.302 25.2123L310.194 26.1761C307.938 25.3117 305.404 24.7164 302.743 24.4258L303.116 23.2891C301.668 23.131 300.187 23.055 298.691 23.0658L294.519 23.0959L294.544 24.2526L286.2 24.3129L286.175 23.1562L277.831 23.2164L277.856 24.3731L269.511 24.4333L269.486 23.2766L261.142 23.3369L261.167 24.4935L252.823 24.5538L252.798 23.3971L244.453 23.4573L244.478 24.614L236.134 24.6743L236.109 23.5176L231.937 23.5477C230.489 23.5581 229.058 23.6498 227.66 23.8181L228.069 24.9505C225.502 25.2598 223.063 25.8536 220.887 26.6987L219.768 25.7389C218.584 26.1989 217.471 26.7267 216.447 27.3177L213.275 29.1491L214.692 29.9671L208.347 33.6299L206.931 32.8119L200.587 36.4747L202.003 37.2926L195.659 40.9554L194.242 40.1375L187.898 43.8002L189.315 44.6182L182.971 48.281L181.554 47.463L175.21 51.1258L176.627 51.9438L170.283 55.6066L168.866 54.7886L162.522 58.4514L163.939 59.2694L157.594 62.9321L156.178 62.1142L149.834 65.777L151.25 66.5949L144.906 70.2577L143.489 69.4398L137.145 73.1025L138.562 73.9205L132.218 77.5833L130.801 76.7653L124.457 80.4281L125.874 81.2461L119.53 84.9089L118.113 84.0909L111.769 87.7537L113.185 88.5717L106.841 92.2345L105.425 91.4165L99.0804 95.0793L100.497 95.8972L94.153 99.56L92.7363 98.7421L86.3921 102.405L87.8089 103.223L81.4648 106.886L80.048 106.068L73.7039 109.73L75.1206 110.548L68.7765 114.211L67.3597 113.393L61.0156 117.056L62.4324 117.874L56.0882 121.537L54.6715 120.719L48.3273 124.382L49.7441 125.2L43.4 128.862L41.9832 128.044L35.6391 131.707L37.0558 132.525L30.7117 136.188L29.2949 135.37L22.9508 139.033L24.3676 139.851L18.0234 143.513L16.6067 142.696L13.4347 144.527C12.3834 145.134 11.4578 145.787 10.6589 146.476L12.3236 147.12Z" fill="url(#paint0_radial_100_19)" fill-opacity="0.3" stroke="#FF5000" stroke-width="3.2719" stroke-linejoin="round" stroke-dasharray="7.25 7.25"/>
<path d="M133.85 106.109C131.358 104.67 129.707 103.069 128.9 101.305C128.127 99.521 128.198 97.7169 129.111 95.8925C130.059 94.0883 131.919 92.3855 134.693 90.7841C137.432 89.2029 140.364 88.1387 143.488 87.5914C146.648 87.0238 149.756 86.9731 152.81 87.4393C155.935 87.9056 158.779 88.8786 161.342 90.3584C163.87 91.8179 165.468 93.4092 166.135 95.1323C166.872 96.8553 166.802 98.5379 165.924 100.18C165.047 101.822 163.537 103.261 161.395 104.498C161.009 104.721 160.605 104.933 160.184 105.136C159.797 105.359 159.359 105.613 158.867 105.896L138.064 93.8856C136.168 95.1019 134.956 96.3283 134.43 97.5648C133.973 98.8014 134.026 99.967 134.588 101.062C135.185 102.177 136.185 103.139 137.59 103.95C139.416 105.004 141.364 105.643 143.436 105.866C145.507 106.089 147.544 105.947 149.545 105.44L153.916 107.964C150.792 108.957 147.421 109.342 143.804 109.119C140.258 108.896 136.94 107.893 133.85 106.109ZM157.498 92.4565C155.391 91.2402 152.863 90.5307 149.914 90.328C147.035 90.1253 144.243 90.6625 141.54 91.9396L157.972 101.427C160.219 100.008 161.255 98.477 161.079 96.8351C160.903 95.1931 159.71 93.7336 157.498 92.4565ZM164.099 123.573C161.395 122.012 159.534 120.37 158.516 118.647C157.498 116.924 157.322 115.241 157.989 113.6C158.656 111.958 160.149 110.468 162.466 109.13L167.101 111.806C165.661 112.637 164.66 113.6 164.099 114.694C163.572 115.769 163.572 116.883 164.099 118.039C164.696 119.194 165.942 120.319 167.838 121.414C170.331 122.853 172.859 123.624 175.422 123.725C177.985 123.826 180.162 123.36 181.953 122.326C183.427 121.475 184.287 120.613 184.533 119.742C184.814 118.85 184.691 117.927 184.165 116.975C183.673 116.042 182.936 115.049 181.953 113.995C181.005 112.961 180.039 111.856 179.056 110.68C177.195 108.471 176.3 106.555 176.37 104.934C176.475 103.292 177.704 101.791 180.057 100.433C181.988 99.2778 184.182 98.5379 186.64 98.2136C189.133 97.869 191.661 97.9501 194.224 98.4569C196.857 98.9636 199.368 99.9063 201.755 101.285C204.108 102.643 205.705 104.072 206.548 105.572C207.426 107.092 207.566 108.572 206.969 110.011C206.407 111.471 205.161 112.779 203.23 113.934L198.595 111.258C199.613 110.67 200.351 109.941 200.807 109.069C201.299 108.177 201.316 107.234 200.86 106.241C200.438 105.268 199.42 104.315 197.805 103.383C195.839 102.207 193.68 101.548 191.327 101.406C189.01 101.285 186.921 101.761 185.06 102.835C183.48 103.748 182.707 104.7 182.743 105.694C182.813 106.707 183.375 107.842 184.428 109.099C185.516 110.336 186.763 111.765 188.167 113.387C189.291 114.765 190.133 116.103 190.695 117.4C191.257 118.698 191.257 119.955 190.695 121.171C190.169 122.407 188.869 123.624 186.798 124.82C185.042 125.833 182.918 126.533 180.425 126.918C177.968 127.283 175.317 127.212 172.473 126.705C169.664 126.218 166.872 125.174 164.099 123.573ZM183.434 134.006L220.3 112.722L224.724 115.276L187.858 136.561L183.434 134.006ZM195.675 141.074L232.541 119.789L237.702 122.769L225.273 145.27L264.141 138.033L269.355 141.043L232.488 162.328L228.064 159.774L257.031 143.05L221.007 149.618L217.689 147.702L229.012 126.934L200.099 143.628L195.675 141.074Z" fill="#FF5000"/>
<path d="M133.85 106.109C131.358 104.67 129.707 103.069 128.9 101.305C128.127 99.521 128.198 97.7169 129.111 95.8925C130.059 94.0883 131.919 92.3855 134.693 90.7841C137.432 89.2029 140.364 88.1387 143.488 87.5914C146.648 87.0238 149.756 86.9731 152.81 87.4393C155.935 87.9056 158.779 88.8786 161.342 90.3584C163.87 91.8179 165.468 93.4092 166.135 95.1323C166.872 96.8553 166.802 98.5379 165.924 100.18C165.047 101.822 163.537 103.261 161.395 104.498C161.009 104.721 160.605 104.933 160.184 105.136C159.797 105.359 159.359 105.613 158.867 105.896L138.064 93.8856C136.168 95.1019 134.956 96.3283 134.43 97.5648C133.973 98.8014 134.026 99.967 134.588 101.062C135.185 102.177 136.185 103.139 137.59 103.95C139.416 105.004 141.364 105.643 143.436 105.866C145.507 106.089 147.544 105.947 149.545 105.44L153.916 107.964C150.792 108.957 147.421 109.342 143.804 109.119C140.258 108.896 136.94 107.893 133.85 106.109ZM157.498 92.4565C155.391 91.2402 152.863 90.5307 149.914 90.328C147.035 90.1253 144.243 90.6625 141.54 91.9396L157.972 101.427C160.219 100.008 161.255 98.477 161.079 96.8351C160.903 95.1931 159.71 93.7336 157.498 92.4565ZM164.099 123.573C161.395 122.012 159.534 120.37 158.516 118.647C157.498 116.924 157.322 115.241 157.989 113.6C158.656 111.958 160.149 110.468 162.466 109.13L167.101 111.806C165.661 112.637 164.66 113.6 164.099 114.694C163.572 115.769 163.572 116.883 164.099 118.039C164.696 119.194 165.942 120.319 167.838 121.414C170.331 122.853 172.859 123.624 175.422 123.725C177.985 123.826 180.162 123.36 181.953 122.326C183.427 121.475 184.287 120.613 184.533 119.742C184.814 118.85 184.691 117.927 184.165 116.975C183.673 116.042 182.936 115.049 181.953 113.995C181.005 112.961 180.039 111.856 179.056 110.68C177.195 108.471 176.3 106.555 176.37 104.934C176.475 103.292 177.704 101.791 180.057 100.433C181.988 99.2778 184.182 98.5379 186.64 98.2136C189.133 97.869 191.661 97.9501 194.224 98.4569C196.857 98.9636 199.368 99.9063 201.755 101.285C204.108 102.643 205.705 104.072 206.548 105.572C207.426 107.092 207.566 108.572 206.969 110.011C206.407 111.471 205.161 112.779 203.23 113.934L198.595 111.258C199.613 110.67 200.351 109.941 200.807 109.069C201.299 108.177 201.316 107.234 200.86 106.241C200.438 105.268 199.42 104.315 197.805 103.383C195.839 102.207 193.68 101.548 191.327 101.406C189.01 101.285 186.921 101.761 185.06 102.835C183.48 103.748 182.707 104.7 182.743 105.694C182.813 106.707 183.375 107.842 184.428 109.099C185.516 110.336 186.763 111.765 188.167 113.387C189.291 114.765 190.133 116.103 190.695 117.4C191.257 118.698 191.257 119.955 190.695 121.171C190.169 122.407 188.869 123.624 186.798 124.82C185.042 125.833 182.918 126.533 180.425 126.918C177.968 127.283 175.317 127.212 172.473 126.705C169.664 126.218 166.872 125.174 164.099 123.573ZM183.434 134.006L220.3 112.722L224.724 115.276L187.858 136.561L183.434 134.006ZM195.675 141.074L232.541 119.789L237.702 122.769L225.273 145.27L264.141 138.033L269.355 141.043L232.488 162.328L228.064 159.774L257.031 143.05L221.007 149.618L217.689 147.702L229.012 126.934L200.099 143.628L195.675 141.074Z" fill="url(#paint1_radial_100_19)" fill-opacity="0.35"/>
<path d="M128.9 101.305L128.336 101.386L128.338 101.391L128.9 101.305ZM129.111 95.8925L128.554 95.795L128.552 95.7993L129.111 95.8925ZM143.488 87.5914L143.657 87.9125L143.661 87.9118L143.488 87.5914ZM152.81 87.4393L152.662 87.7638L152.665 87.7643L152.81 87.4393ZM166.135 95.1323L165.568 95.2055L165.571 95.2128L166.135 95.1323ZM165.924 100.18L166.48 100.279L165.924 100.18ZM160.184 105.136L159.812 104.878L159.791 104.888L159.773 104.899L160.184 105.136ZM158.867 105.896L158.456 106.134L158.867 106.371L159.278 106.134L158.867 105.896ZM138.064 93.8856L138.475 93.6483L138.042 93.3982L137.632 93.6611L138.064 93.8856ZM134.43 97.5648L133.865 97.4847L133.863 97.4898L133.861 97.4949L134.43 97.5648ZM134.588 101.062L134.03 101.157L134.032 101.161L134.588 101.062ZM143.436 105.866L143.542 105.536L143.436 105.866ZM149.545 105.44L149.956 105.203L149.675 105.041L149.312 105.133L149.545 105.44ZM153.916 107.964L154.197 108.258L154.874 108.043L154.327 107.727L153.916 107.964ZM143.804 109.119L143.741 109.453L143.743 109.453L143.804 109.119ZM149.914 90.328L149.843 90.6611L149.845 90.6612L149.914 90.328ZM141.54 91.9396L141.172 91.6798L140.675 91.9146L141.129 92.1769L141.54 91.9396ZM157.972 101.427L157.561 101.664L157.991 101.912L158.401 101.653L157.972 101.427ZM161.079 96.8351L161.659 96.8144L161.079 96.8351ZM134.262 105.872C131.833 104.47 130.24 102.919 129.462 101.219L128.338 101.391C129.175 103.218 130.883 104.87 133.439 106.347L134.262 105.872ZM129.464 101.224C128.717 99.499 128.784 97.7551 129.669 95.9856L128.552 95.7993C127.612 97.6787 127.538 99.543 128.336 101.386L129.464 101.224ZM129.667 95.9899C130.582 94.2482 132.384 92.5916 135.104 91.0214L134.282 90.5468C131.454 92.1794 129.535 93.9284 128.554 95.795L129.667 95.9899ZM135.104 91.0214C137.788 89.472 140.639 88.4411 143.657 87.9125L143.32 87.2702C140.088 87.8363 137.076 88.9338 134.282 90.5468L135.104 91.0214ZM143.661 87.9118C146.722 87.362 149.718 87.3144 152.662 87.7638L152.959 87.1149C149.794 86.6317 146.575 86.6855 143.316 87.2709L143.661 87.9118ZM152.665 87.7643C155.677 88.2137 158.432 89.1529 160.931 90.5957L161.753 90.1211C159.126 88.6042 156.193 87.5974 152.956 87.1144L152.665 87.7643ZM160.931 90.5957C163.395 92.018 164.928 93.5545 165.568 95.2055L166.702 95.0591C166.007 93.264 164.346 91.6179 161.753 90.1211L160.931 90.5957ZM165.571 95.2128C166.284 96.8787 166.214 98.4991 165.369 100.081L166.48 100.279C167.39 98.5766 167.461 96.832 166.699 95.0518L165.571 95.2128ZM165.369 100.081C164.52 101.67 163.06 103.062 160.984 104.26L161.806 104.735C164.013 103.46 165.574 101.974 166.48 100.279L165.369 100.081ZM160.984 104.26C160.61 104.476 160.219 104.682 159.812 104.878L160.556 105.394C160.991 105.185 161.407 104.965 161.806 104.735L160.984 104.26ZM159.773 104.899C159.772 104.899 159.771 104.9 159.77 104.9C159.77 104.901 159.769 104.901 159.768 104.901C159.767 104.902 159.767 104.902 159.766 104.903C159.765 104.903 159.764 104.904 159.764 104.904C159.763 104.905 159.762 104.905 159.761 104.905C159.761 104.906 159.76 104.906 159.759 104.907C159.758 104.907 159.758 104.908 159.757 104.908C159.756 104.908 159.755 104.909 159.755 104.909C159.754 104.91 159.753 104.91 159.752 104.911C159.751 104.911 159.751 104.912 159.75 104.912C159.749 104.912 159.748 104.913 159.748 104.913C159.747 104.914 159.746 104.914 159.745 104.915C159.745 104.915 159.744 104.915 159.743 104.916C159.742 104.916 159.742 104.917 159.741 104.917C159.74 104.918 159.739 104.918 159.739 104.919C159.738 104.919 159.737 104.919 159.736 104.92C159.736 104.92 159.735 104.921 159.734 104.921C159.733 104.922 159.732 104.922 159.732 104.922C159.731 104.923 159.73 104.923 159.729 104.924C159.729 104.924 159.728 104.925 159.727 104.925C159.726 104.926 159.726 104.926 159.725 104.926C159.724 104.927 159.723 104.927 159.723 104.928C159.722 104.928 159.721 104.929 159.72 104.929C159.72 104.93 159.719 104.93 159.718 104.93C159.717 104.931 159.716 104.931 159.716 104.932C159.715 104.932 159.714 104.933 159.713 104.933C159.713 104.934 159.712 104.934 159.711 104.934C159.71 104.935 159.71 104.935 159.709 104.936C159.708 104.936 159.707 104.937 159.707 104.937C159.706 104.937 159.705 104.938 159.704 104.938C159.703 104.939 159.703 104.939 159.702 104.94C159.701 104.94 159.7 104.941 159.7 104.941C159.699 104.941 159.698 104.942 159.697 104.942C159.697 104.943 159.696 104.943 159.695 104.944C159.694 104.944 159.693 104.945 159.693 104.945C159.692 104.945 159.691 104.946 159.69 104.946C159.69 104.947 159.689 104.947 159.688 104.948C159.687 104.948 159.687 104.949 159.686 104.949C159.685 104.949 159.684 104.95 159.683 104.95C159.683 104.951 159.682 104.951 159.681 104.952C159.68 104.952 159.68 104.953 159.679 104.953C159.678 104.953 159.677 104.954 159.677 104.954C159.676 104.955 159.675 104.955 159.674 104.956C159.673 104.956 159.673 104.957 159.672 104.957C159.671 104.957 159.67 104.958 159.67 104.958C159.669 104.959 159.668 104.959 159.667 104.96C159.667 104.96 159.666 104.961 159.665 104.961C159.664 104.961 159.663 104.962 159.663 104.962C159.662 104.963 159.661 104.963 159.66 104.964C159.66 104.964 159.659 104.965 159.658 104.965C159.657 104.966 159.656 104.966 159.656 104.966C159.655 104.967 159.654 104.967 159.653 104.968C159.653 104.968 159.652 104.969 159.651 104.969C159.65 104.97 159.649 104.97 159.649 104.97C159.648 104.971 159.647 104.971 159.646 104.972C159.646 104.972 159.645 104.973 159.644 104.973C159.643 104.974 159.642 104.974 159.642 104.974C159.641 104.975 159.64 104.975 159.639 104.976C159.639 104.976 159.638 104.977 159.637 104.977C159.636 104.978 159.635 104.978 159.635 104.979C159.634 104.979 159.633 104.979 159.632 104.98C159.632 104.98 159.631 104.981 159.63 104.981C159.629 104.982 159.628 104.982 159.628 104.983C159.627 104.983 159.626 104.983 159.625 104.984C159.625 104.984 159.624 104.985 159.623 104.985C159.622 104.986 159.621 104.986 159.621 104.987C159.62 104.987 159.619 104.988 159.618 104.988C159.618 104.988 159.617 104.989 159.616 104.989C159.615 104.99 159.614 104.99 159.614 104.991C159.613 104.991 159.612 104.992 159.611 104.992C159.611 104.992 159.61 104.993 159.609 104.993C159.608 104.994 159.607 104.994 159.607 104.995C159.606 104.995 159.605 104.996 159.604 104.996C159.603 104.997 159.603 104.997 159.602 104.997C159.601 104.998 159.6 104.998 159.6 104.999C159.599 104.999 159.598 105 159.597 105C159.596 105.001 159.596 105.001 159.595 105.002C159.594 105.002 159.593 105.002 159.592 105.003C159.592 105.003 159.591 105.004 159.59 105.004C159.589 105.005 159.589 105.005 159.588 105.006C159.587 105.006 159.586 105.007 159.585 105.007C159.585 105.007 159.584 105.008 159.583 105.008C159.582 105.009 159.581 105.009 159.581 105.01C159.58 105.01 159.579 105.011 159.578 105.011C159.578 105.012 159.577 105.012 159.576 105.012C159.575 105.013 159.574 105.013 159.574 105.014C159.573 105.014 159.572 105.015 159.571 105.015C159.57 105.016 159.57 105.016 159.569 105.017C159.568 105.017 159.567 105.017 159.566 105.018C159.566 105.018 159.565 105.019 159.564 105.019C159.563 105.02 159.563 105.02 159.562 105.021C159.561 105.021 159.56 105.022 159.559 105.022C159.559 105.022 159.558 105.023 159.557 105.023C159.556 105.024 159.555 105.024 159.555 105.025C159.554 105.025 159.553 105.026 159.552 105.026C159.551 105.027 159.551 105.027 159.55 105.027C159.549 105.028 159.548 105.028 159.547 105.029C159.547 105.029 159.546 105.03 159.545 105.03C159.544 105.031 159.544 105.031 159.543 105.032C159.542 105.032 159.541 105.033 159.54 105.033C159.54 105.033 159.539 105.034 159.538 105.034C159.537 105.035 159.536 105.035 159.536 105.036C159.535 105.036 159.534 105.037 159.533 105.037C159.532 105.038 159.532 105.038 159.531 105.039C159.53 105.039 159.529 105.039 159.528 105.04C159.528 105.04 159.527 105.041 159.526 105.041C159.525 105.042 159.524 105.042 159.524 105.043C159.523 105.043 159.522 105.044 159.521 105.044C159.52 105.044 159.52 105.045 159.519 105.045C159.518 105.046 159.517 105.046 159.516 105.047C159.516 105.047 159.515 105.048 159.514 105.048C159.513 105.049 159.512 105.049 159.512 105.05C159.511 105.05 159.51 105.05 159.509 105.051C159.508 105.051 159.508 105.052 159.507 105.052C159.506 105.053 159.505 105.053 159.504 105.054C159.504 105.054 159.503 105.055 159.502 105.055C159.501 105.056 159.5 105.056 159.5 105.056C159.499 105.057 159.498 105.057 159.497 105.058C159.496 105.058 159.496 105.059 159.495 105.059C159.494 105.06 159.493 105.06 159.492 105.061C159.492 105.061 159.491 105.062 159.49 105.062C159.489 105.063 159.488 105.063 159.488 105.063C159.487 105.064 159.486 105.064 159.485 105.065C159.484 105.065 159.484 105.066 159.483 105.066C159.482 105.067 159.481 105.067 159.48 105.068C159.48 105.068 159.479 105.069 159.478 105.069C159.477 105.069 159.476 105.07 159.476 105.07C159.475 105.071 159.474 105.071 159.473 105.072C159.472 105.072 159.472 105.073 159.471 105.073C159.47 105.074 159.469 105.074 159.468 105.075C159.467 105.075 159.467 105.076 159.466 105.076C159.465 105.076 159.464 105.077 159.463 105.077C159.463 105.078 159.462 105.078 159.461 105.079C159.46 105.079 159.459 105.08 159.459 105.08C159.458 105.081 159.457 105.081 159.456 105.082C159.455 105.082 159.455 105.083 159.454 105.083C159.453 105.083 159.452 105.084 159.451 105.084C159.451 105.085 159.45 105.085 159.449 105.086C159.448 105.086 159.447 105.087 159.446 105.087C159.446 105.088 159.445 105.088 159.444 105.089C159.443 105.089 159.442 105.09 159.442 105.09C159.441 105.09 159.44 105.091 159.439 105.091C159.438 105.092 159.438 105.092 159.437 105.093C159.436 105.093 159.435 105.094 159.434 105.094C159.433 105.095 159.433 105.095 159.432 105.096C159.431 105.096 159.43 105.097 159.429 105.097C159.429 105.098 159.428 105.098 159.427 105.098C159.426 105.099 159.425 105.099 159.425 105.1C159.424 105.1 159.423 105.101 159.422 105.101C159.421 105.102 159.42 105.102 159.42 105.103C159.419 105.103 159.418 105.104 159.417 105.104C159.416 105.105 159.416 105.105 159.415 105.105C159.414 105.106 159.413 105.106 159.412 105.107C159.411 105.107 159.411 105.108 159.41 105.108C159.409 105.109 159.408 105.109 159.407 105.11C159.407 105.11 159.406 105.111 159.405 105.111C159.404 105.112 159.403 105.112 159.403 105.113C159.402 105.113 159.401 105.114 159.4 105.114C159.399 105.114 159.398 105.115 159.398 105.115C159.397 105.116 159.396 105.116 159.395 105.117C159.394 105.117 159.394 105.118 159.393 105.118C159.392 105.119 159.391 105.119 159.39 105.12C159.389 105.12 159.389 105.121 159.388 105.121C159.387 105.122 159.386 105.122 159.385 105.122C159.384 105.123 159.384 105.123 159.383 105.124C159.382 105.124 159.381 105.125 159.38 105.125C159.38 105.126 159.379 105.126 159.378 105.127C159.377 105.127 159.376 105.128 159.375 105.128C159.375 105.129 159.374 105.129 159.373 105.13C159.372 105.13 159.371 105.131 159.371 105.131C159.37 105.132 159.369 105.132 159.368 105.132C159.367 105.133 159.366 105.133 159.366 105.134C159.365 105.134 159.364 105.135 159.363 105.135C159.362 105.136 159.361 105.136 159.361 105.137C159.36 105.137 159.359 105.138 159.358 105.138C159.357 105.139 159.357 105.139 159.356 105.14C159.355 105.14 159.354 105.141 159.353 105.141C159.352 105.142 159.352 105.142 159.351 105.142C159.35 105.143 159.349 105.143 159.348 105.144C159.347 105.144 159.347 105.145 159.346 105.145C159.345 105.146 159.344 105.146 159.343 105.147C159.342 105.147 159.342 105.148 159.341 105.148C159.34 105.149 159.339 105.149 159.338 105.15C159.338 105.15 159.337 105.151 159.336 105.151C159.335 105.152 159.334 105.152 159.333 105.152C159.333 105.153 159.332 105.153 159.331 105.154C159.33 105.154 159.329 105.155 159.328 105.155C159.328 105.156 159.327 105.156 159.326 105.157C159.325 105.157 159.324 105.158 159.323 105.158C159.323 105.159 159.322 105.159 159.321 105.16C159.32 105.16 159.319 105.161 159.318 105.161C159.318 105.162 159.317 105.162 159.316 105.163C159.315 105.163 159.314 105.164 159.313 105.164C159.313 105.164 159.312 105.165 159.311 105.165C159.31 105.166 159.309 105.166 159.308 105.167C159.308 105.167 159.307 105.168 159.306 105.168C159.305 105.169 159.304 105.169 159.303 105.17C159.303 105.17 159.302 105.171 159.301 105.171C159.3 105.172 159.299 105.172 159.298 105.173C159.298 105.173 159.297 105.174 159.296 105.174C159.295 105.175 159.294 105.175 159.293 105.176C159.293 105.176 159.292 105.177 159.291 105.177C159.29 105.177 159.289 105.178 159.288 105.178C159.288 105.179 159.287 105.179 159.286 105.18C159.285 105.18 159.284 105.181 159.283 105.181C159.283 105.182 159.282 105.182 159.281 105.183C159.28 105.183 159.279 105.184 159.278 105.184C159.278 105.185 159.277 105.185 159.276 105.186C159.275 105.186 159.274 105.187 159.273 105.187C159.273 105.188 159.272 105.188 159.271 105.189C159.27 105.189 159.269 105.19 159.268 105.19C159.267 105.191 159.267 105.191 159.266 105.191C159.265 105.192 159.264 105.192 159.263 105.193C159.262 105.193 159.262 105.194 159.261 105.194C159.26 105.195 159.259 105.195 159.258 105.196C159.257 105.196 159.257 105.197 159.256 105.197C159.255 105.198 159.254 105.198 159.253 105.199C159.252 105.199 159.252 105.2 159.251 105.2C159.25 105.201 159.249 105.201 159.248 105.202C159.247 105.202 159.246 105.203 159.246 105.203C159.245 105.204 159.244 105.204 159.243 105.205C159.242 105.205 159.241 105.206 159.241 105.206C159.24 105.207 159.239 105.207 159.238 105.208C159.237 105.208 159.236 105.209 159.235 105.209C159.235 105.209 159.234 105.21 159.233 105.21C159.232 105.211 159.231 105.211 159.23 105.212C159.23 105.212 159.229 105.213 159.228 105.213C159.227 105.214 159.226 105.214 159.225 105.215C159.225 105.215 159.224 105.216 159.223 105.216C159.222 105.217 159.221 105.217 159.22 105.218C159.219 105.218 159.219 105.219 159.218 105.219C159.217 105.22 159.216 105.22 159.215 105.221C159.214 105.221 159.214 105.222 159.213 105.222C159.212 105.223 159.211 105.223 159.21 105.224C159.209 105.224 159.208 105.225 159.208 105.225C159.207 105.226 159.206 105.226 159.205 105.227C159.204 105.227 159.203 105.228 159.202 105.228C159.202 105.229 159.201 105.229 159.2 105.23C159.199 105.23 159.198 105.231 159.197 105.231C159.197 105.231 159.196 105.232 159.195 105.232C159.194 105.233 159.193 105.233 159.192 105.234C159.191 105.234 159.191 105.235 159.19 105.235C159.189 105.236 159.188 105.236 159.187 105.237C159.186 105.237 159.185 105.238 159.185 105.238C159.184 105.239 159.183 105.239 159.182 105.24C159.181 105.24 159.18 105.241 159.179 105.241C159.179 105.242 159.178 105.242 159.177 105.243C159.176 105.243 159.175 105.244 159.174 105.244C159.174 105.245 159.173 105.245 159.172 105.246C159.171 105.246 159.17 105.247 159.169 105.247C159.168 105.248 159.168 105.248 159.167 105.249C159.166 105.249 159.165 105.25 159.164 105.25C159.163 105.251 159.162 105.251 159.162 105.252C159.161 105.252 159.16 105.253 159.159 105.253C159.158 105.254 159.157 105.254 159.156 105.255C159.156 105.255 159.155 105.256 159.154 105.256C159.153 105.257 159.152 105.257 159.151 105.258C159.15 105.258 159.15 105.259 159.149 105.259C159.148 105.26 159.147 105.26 159.146 105.261C159.145 105.261 159.144 105.262 159.144 105.262C159.143 105.263 159.142 105.263 159.141 105.264C159.14 105.264 159.139 105.265 159.138 105.265C159.138 105.266 159.137 105.266 159.136 105.267C159.135 105.267 159.134 105.268 159.133 105.268C159.132 105.269 159.131 105.269 159.131 105.27C159.13 105.27 159.129 105.271 159.128 105.271C159.127 105.272 159.126 105.272 159.125 105.273C159.125 105.273 159.124 105.274 159.123 105.274C159.122 105.275 159.121 105.275 159.12 105.276C159.119 105.276 159.119 105.277 159.118 105.277C159.117 105.277 159.116 105.278 159.115 105.278C159.114 105.279 159.113 105.279 159.113 105.28C159.112 105.28 159.111 105.281 159.11 105.281C159.109 105.282 159.108 105.282 159.107 105.283C159.106 105.283 159.106 105.284 159.105 105.284C159.104 105.285 159.103 105.285 159.102 105.286C159.101 105.286 159.1 105.287 159.1 105.287C159.099 105.288 159.098 105.288 159.097 105.289C159.096 105.289 159.095 105.29 159.094 105.29C159.093 105.291 159.093 105.291 159.092 105.292C159.091 105.292 159.09 105.293 159.089 105.293C159.088 105.294 159.087 105.294 159.087 105.295C159.086 105.295 159.085 105.296 159.084 105.296C159.083 105.297 159.082 105.297 159.081 105.298C159.08 105.298 159.08 105.299 159.079 105.299C159.078 105.3 159.077 105.3 159.076 105.301C159.075 105.302 159.074 105.302 159.074 105.303C159.073 105.303 159.072 105.304 159.071 105.304C159.07 105.305 159.069 105.305 159.068 105.306C159.067 105.306 159.067 105.307 159.066 105.307C159.065 105.308 159.064 105.308 159.063 105.309C159.062 105.309 159.061 105.31 159.06 105.31C159.06 105.311 159.059 105.311 159.058 105.312C159.057 105.312 159.056 105.313 159.055 105.313C159.054 105.314 159.053 105.314 159.053 105.315C159.052 105.315 159.051 105.316 159.05 105.316C159.049 105.317 159.048 105.317 159.047 105.318C159.047 105.318 159.046 105.319 159.045 105.319C159.044 105.32 159.043 105.32 159.042 105.321C159.041 105.321 159.04 105.322 159.04 105.322C159.039 105.323 159.038 105.323 159.037 105.324C159.036 105.324 159.035 105.325 159.034 105.325C159.033 105.326 159.033 105.326 159.032 105.327C159.031 105.327 159.03 105.328 159.029 105.328C159.028 105.329 159.027 105.329 159.026 105.33C159.025 105.33 159.025 105.331 159.024 105.331C159.023 105.332 159.022 105.332 159.021 105.333C159.02 105.333 159.019 105.334 159.018 105.334C159.018 105.335 159.017 105.335 159.016 105.336C159.015 105.336 159.014 105.337 159.013 105.337C159.012 105.338 159.011 105.338 159.011 105.339C159.01 105.339 159.009 105.34 159.008 105.34C159.007 105.341 159.006 105.341 159.005 105.342C159.004 105.342 159.004 105.343 159.003 105.343C159.002 105.344 159.001 105.344 159 105.345C158.999 105.345 158.998 105.346 158.997 105.346C158.996 105.347 158.996 105.347 158.995 105.348C158.994 105.349 158.993 105.349 158.992 105.35C158.991 105.35 158.99 105.351 158.989 105.351C158.989 105.352 158.988 105.352 158.987 105.353C158.986 105.353 158.985 105.354 158.984 105.354C158.983 105.355 158.982 105.355 158.981 105.356C158.981 105.356 158.98 105.357 158.979 105.357C158.978 105.358 158.977 105.358 158.976 105.359C158.975 105.359 158.974 105.36 158.974 105.36C158.973 105.361 158.972 105.361 158.971 105.362C158.97 105.362 158.969 105.363 158.968 105.363C158.967 105.364 158.966 105.364 158.966 105.365C158.965 105.365 158.964 105.366 158.963 105.366C158.962 105.367 158.961 105.367 158.96 105.368C158.959 105.368 158.958 105.369 158.958 105.369C158.957 105.37 158.956 105.37 158.955 105.371C158.954 105.372 158.953 105.372 158.952 105.373C158.951 105.373 158.95 105.374 158.95 105.374C158.949 105.375 158.948 105.375 158.947 105.376C158.946 105.376 158.945 105.377 158.944 105.377C158.943 105.378 158.942 105.378 158.942 105.379C158.941 105.379 158.94 105.38 158.939 105.38C158.938 105.381 158.937 105.381 158.936 105.382C158.935 105.382 158.934 105.383 158.934 105.383C158.933 105.384 158.932 105.384 158.931 105.385C158.93 105.385 158.929 105.386 158.928 105.386C158.927 105.387 158.926 105.387 158.926 105.388C158.925 105.388 158.924 105.389 158.923 105.389C158.922 105.39 158.921 105.391 158.92 105.391C158.919 105.392 158.918 105.392 158.917 105.393C158.917 105.393 158.916 105.394 158.915 105.394C158.914 105.395 158.913 105.395 158.912 105.396C158.911 105.396 158.91 105.397 158.909 105.397C158.909 105.398 158.908 105.398 158.907 105.399C158.906 105.399 158.905 105.4 158.904 105.4C158.903 105.401 158.902 105.401 158.901 105.402C158.901 105.402 158.9 105.403 158.899 105.403C158.898 105.404 158.897 105.404 158.896 105.405C158.895 105.406 158.894 105.406 158.893 105.407C158.892 105.407 158.892 105.408 158.891 105.408C158.89 105.409 158.889 105.409 158.888 105.41C158.887 105.41 158.886 105.411 158.885 105.411C158.884 105.412 158.883 105.412 158.883 105.413C158.882 105.413 158.881 105.414 158.88 105.414C158.879 105.415 158.878 105.415 158.877 105.416C158.876 105.416 158.875 105.417 158.874 105.417C158.874 105.418 158.873 105.418 158.872 105.419C158.871 105.42 158.87 105.42 158.869 105.421C158.868 105.421 158.867 105.422 158.866 105.422C158.865 105.423 158.865 105.423 158.864 105.424C158.863 105.424 158.862 105.425 158.861 105.425C158.86 105.426 158.859 105.426 158.858 105.427C158.857 105.427 158.856 105.428 158.856 105.428C158.855 105.429 158.854 105.429 158.853 105.43C158.852 105.43 158.851 105.431 158.85 105.431C158.849 105.432 158.848 105.433 158.847 105.433C158.847 105.434 158.846 105.434 158.845 105.435C158.844 105.435 158.843 105.436 158.842 105.436C158.841 105.437 158.84 105.437 158.839 105.438C158.838 105.438 158.837 105.439 158.837 105.439C158.836 105.44 158.835 105.44 158.834 105.441C158.833 105.441 158.832 105.442 158.831 105.442C158.83 105.443 158.829 105.444 158.828 105.444C158.827 105.445 158.827 105.445 158.826 105.446C158.825 105.446 158.824 105.447 158.823 105.447C158.822 105.448 158.821 105.448 158.82 105.449C158.819 105.449 158.818 105.45 158.818 105.45C158.817 105.451 158.816 105.451 158.815 105.452C158.814 105.452 158.813 105.453 158.812 105.453C158.811 105.454 158.81 105.455 158.809 105.455C158.808 105.456 158.808 105.456 158.807 105.457C158.806 105.457 158.805 105.458 158.804 105.458C158.803 105.459 158.802 105.459 158.801 105.46C158.8 105.46 158.799 105.461 158.798 105.461C158.797 105.462 158.797 105.462 158.796 105.463C158.795 105.463 158.794 105.464 158.793 105.465C158.792 105.465 158.791 105.466 158.79 105.466C158.789 105.467 158.788 105.467 158.787 105.468C158.787 105.468 158.786 105.469 158.785 105.469C158.784 105.47 158.783 105.47 158.782 105.471C158.781 105.471 158.78 105.472 158.779 105.472C158.778 105.473 158.777 105.473 158.777 105.474C158.776 105.475 158.775 105.475 158.774 105.476C158.773 105.476 158.772 105.477 158.771 105.477C158.77 105.478 158.769 105.478 158.768 105.479C158.767 105.479 158.766 105.48 158.766 105.48C158.765 105.481 158.764 105.481 158.763 105.482C158.762 105.482 158.761 105.483 158.76 105.484C158.759 105.484 158.758 105.485 158.757 105.485C158.756 105.486 158.755 105.486 158.755 105.487C158.754 105.487 158.753 105.488 158.752 105.488C158.751 105.489 158.75 105.489 158.749 105.49C158.748 105.49 158.747 105.491 158.746 105.491C158.745 105.492 158.744 105.493 158.744 105.493C158.743 105.494 158.742 105.494 158.741 105.495C158.74 105.495 158.739 105.496 158.738 105.496C158.737 105.497 158.736 105.497 158.735 105.498C158.734 105.498 158.733 105.499 158.732 105.499C158.732 105.5 158.731 105.5 158.73 105.501C158.729 105.502 158.728 105.502 158.727 105.503C158.726 105.503 158.725 105.504 158.724 105.504C158.723 105.505 158.722 105.505 158.721 105.506C158.72 105.506 158.72 105.507 158.719 105.507C158.718 105.508 158.717 105.508 158.716 105.509C158.715 105.51 158.714 105.51 158.713 105.511C158.712 105.511 158.711 105.512 158.71 105.512C158.709 105.513 158.708 105.513 158.708 105.514C158.707 105.514 158.706 105.515 158.705 105.515C158.704 105.516 158.703 105.516 158.702 105.517C158.701 105.518 158.7 105.518 158.699 105.519C158.698 105.519 158.697 105.52 158.696 105.52C158.696 105.521 158.695 105.521 158.694 105.522C158.693 105.522 158.692 105.523 158.691 105.523C158.69 105.524 158.689 105.524 158.688 105.525C158.687 105.526 158.686 105.526 158.685 105.527C158.684 105.527 158.683 105.528 158.683 105.528C158.682 105.529 158.681 105.529 158.68 105.53C158.679 105.53 158.678 105.531 158.677 105.531C158.676 105.532 158.675 105.533 158.674 105.533C158.673 105.534 158.672 105.534 158.671 105.535C158.67 105.535 158.67 105.536 158.669 105.536C158.668 105.537 158.667 105.537 158.666 105.538C158.665 105.538 158.664 105.539 158.663 105.54C158.662 105.54 158.661 105.541 158.66 105.541C158.659 105.542 158.658 105.542 158.657 105.543C158.657 105.543 158.656 105.544 158.655 105.544C158.654 105.545 158.653 105.545 158.652 105.546C158.651 105.546 158.65 105.547 158.649 105.548C158.648 105.548 158.647 105.549 158.646 105.549C158.645 105.55 158.644 105.55 158.643 105.551C158.643 105.551 158.642 105.552 158.641 105.552C158.64 105.553 158.639 105.553 158.638 105.554C158.637 105.555 158.636 105.555 158.635 105.556C158.634 105.556 158.633 105.557 158.632 105.557C158.631 105.558 158.63 105.558 158.629 105.559C158.629 105.559 158.628 105.56 158.627 105.561C158.626 105.561 158.625 105.562 158.624 105.562C158.623 105.563 158.622 105.563 158.621 105.564C158.62 105.564 158.619 105.565 158.618 105.565C158.617 105.566 158.616 105.566 158.615 105.567C158.614 105.568 158.614 105.568 158.613 105.569C158.612 105.569 158.611 105.57 158.61 105.57C158.609 105.571 158.608 105.571 158.607 105.572C158.606 105.572 158.605 105.573 158.604 105.574C158.603 105.574 158.602 105.575 158.601 105.575C158.6 105.576 158.599 105.576 158.598 105.577C158.598 105.577 158.597 105.578 158.596 105.578C158.595 105.579 158.594 105.579 158.593 105.58C158.592 105.581 158.591 105.581 158.59 105.582C158.589 105.582 158.588 105.583 158.587 105.583C158.586 105.584 158.585 105.584 158.584 105.585C158.583 105.585 158.583 105.586 158.582 105.587C158.581 105.587 158.58 105.588 158.579 105.588C158.578 105.589 158.577 105.589 158.576 105.59C158.575 105.59 158.574 105.591 158.573 105.591C158.572 105.592 158.571 105.593 158.57 105.593C158.569 105.594 158.568 105.594 158.567 105.595C158.566 105.595 158.566 105.596 158.565 105.596C158.564 105.597 158.563 105.597 158.562 105.598C158.561 105.599 158.56 105.599 158.559 105.6C158.558 105.6 158.557 105.601 158.556 105.601C158.555 105.602 158.554 105.602 158.553 105.603C158.552 105.603 158.551 105.604 158.55 105.605C158.549 105.605 158.548 105.606 158.548 105.606C158.547 105.607 158.546 105.607 158.545 105.608C158.544 105.608 158.543 105.609 158.542 105.609C158.541 105.61 158.54 105.611 158.539 105.611C158.538 105.612 158.537 105.612 158.536 105.613C158.535 105.613 158.534 105.614 158.533 105.614C158.532 105.615 158.531 105.615 158.53 105.616C158.53 105.617 158.529 105.617 158.528 105.618C158.527 105.618 158.526 105.619 158.525 105.619C158.524 105.62 158.523 105.62 158.522 105.621C158.521 105.622 158.52 105.622 158.519 105.623C158.518 105.623 158.517 105.624 158.516 105.624C158.515 105.625 158.514 105.625 158.513 105.626C158.512 105.626 158.511 105.627 158.511 105.628C158.51 105.628 158.509 105.629 158.508 105.629C158.507 105.63 158.506 105.63 158.505 105.631C158.504 105.631 158.503 105.632 158.502 105.633C158.501 105.633 158.5 105.634 158.499 105.634C158.498 105.635 158.497 105.635 158.496 105.636C158.495 105.636 158.494 105.637 158.493 105.637C158.492 105.638 158.491 105.639 158.49 105.639C158.49 105.64 158.489 105.64 158.488 105.641C158.487 105.641 158.486 105.642 158.485 105.642C158.484 105.643 158.483 105.644 158.482 105.644C158.481 105.645 158.48 105.645 158.479 105.646C158.478 105.646 158.477 105.647 158.476 105.647C158.475 105.648 158.474 105.649 158.473 105.649C158.472 105.65 158.471 105.65 158.47 105.651C158.469 105.651 158.468 105.652 158.468 105.652C158.467 105.653 158.466 105.653 158.465 105.654C158.464 105.655 158.463 105.655 158.462 105.656C158.461 105.656 158.46 105.657 158.459 105.657C158.458 105.658 158.457 105.658 158.456 105.659L159.278 106.134C159.279 106.133 159.28 106.133 159.281 106.132C159.282 106.131 159.283 106.131 159.284 106.13C159.285 106.13 159.286 106.129 159.287 106.129C159.288 106.128 159.289 106.128 159.29 106.127C159.291 106.126 159.291 106.126 159.292 106.125C159.293 106.125 159.294 106.124 159.295 106.124C159.296 106.123 159.297 106.123 159.298 106.122C159.299 106.121 159.3 106.121 159.301 106.12C159.302 106.12 159.303 106.119 159.304 106.119C159.305 106.118 159.306 106.118 159.307 106.117C159.308 106.117 159.309 106.116 159.31 106.115C159.311 106.115 159.312 106.114 159.313 106.114C159.313 106.113 159.314 106.113 159.315 106.112C159.316 106.112 159.317 106.111 159.318 106.11C159.319 106.11 159.32 106.109 159.321 106.109C159.322 106.108 159.323 106.108 159.324 106.107C159.325 106.107 159.326 106.106 159.327 106.105C159.328 106.105 159.329 106.104 159.33 106.104C159.331 106.103 159.332 106.103 159.333 106.102C159.334 106.102 159.334 106.101 159.335 106.101C159.336 106.1 159.337 106.099 159.338 106.099C159.339 106.098 159.34 106.098 159.341 106.097C159.342 106.097 159.343 106.096 159.344 106.096C159.345 106.095 159.346 106.094 159.347 106.094C159.348 106.093 159.349 106.093 159.35 106.092C159.351 106.092 159.352 106.091 159.353 106.091C159.353 106.09 159.354 106.09 159.355 106.089C159.356 106.088 159.357 106.088 159.358 106.087C159.359 106.087 159.36 106.086 159.361 106.086C159.362 106.085 159.363 106.085 159.364 106.084C159.365 106.084 159.366 106.083 159.367 106.082C159.368 106.082 159.369 106.081 159.37 106.081C159.371 106.08 159.371 106.08 159.372 106.079C159.373 106.079 159.374 106.078 159.375 106.078C159.376 106.077 159.377 106.076 159.378 106.076C159.379 106.075 159.38 106.075 159.381 106.074C159.382 106.074 159.383 106.073 159.384 106.073C159.385 106.072 159.386 106.072 159.387 106.071C159.388 106.07 159.389 106.07 159.389 106.069C159.39 106.069 159.391 106.068 159.392 106.068C159.393 106.067 159.394 106.067 159.395 106.066C159.396 106.066 159.397 106.065 159.398 106.064C159.399 106.064 159.4 106.063 159.401 106.063C159.402 106.062 159.403 106.062 159.404 106.061C159.405 106.061 159.405 106.06 159.406 106.06C159.407 106.059 159.408 106.058 159.409 106.058C159.41 106.057 159.411 106.057 159.412 106.056C159.413 106.056 159.414 106.055 159.415 106.055C159.416 106.054 159.417 106.054 159.418 106.053C159.419 106.052 159.42 106.052 159.421 106.051C159.421 106.051 159.422 106.05 159.423 106.05C159.424 106.049 159.425 106.049 159.426 106.048C159.427 106.048 159.428 106.047 159.429 106.046C159.43 106.046 159.431 106.045 159.432 106.045C159.433 106.044 159.434 106.044 159.435 106.043C159.436 106.043 159.437 106.042 159.437 106.042C159.438 106.041 159.439 106.041 159.44 106.04C159.441 106.039 159.442 106.039 159.443 106.038C159.444 106.038 159.445 106.037 159.446 106.037C159.447 106.036 159.448 106.036 159.449 106.035C159.45 106.035 159.451 106.034 159.452 106.034C159.452 106.033 159.453 106.032 159.454 106.032C159.455 106.031 159.456 106.031 159.457 106.03C159.458 106.03 159.459 106.029 159.46 106.029C159.461 106.028 159.462 106.028 159.463 106.027C159.464 106.026 159.465 106.026 159.466 106.025C159.466 106.025 159.467 106.024 159.468 106.024C159.469 106.023 159.47 106.023 159.471 106.022C159.472 106.022 159.473 106.021 159.474 106.021C159.475 106.02 159.476 106.019 159.477 106.019C159.478 106.018 159.479 106.018 159.48 106.017C159.48 106.017 159.481 106.016 159.482 106.016C159.483 106.015 159.484 106.015 159.485 106.014C159.486 106.014 159.487 106.013 159.488 106.013C159.489 106.012 159.49 106.011 159.491 106.011C159.492 106.01 159.493 106.01 159.493 106.009C159.494 106.009 159.495 106.008 159.496 106.008C159.497 106.007 159.498 106.007 159.499 106.006C159.5 106.006 159.501 106.005 159.502 106.004C159.503 106.004 159.504 106.003 159.505 106.003C159.506 106.002 159.506 106.002 159.507 106.001C159.508 106.001 159.509 106 159.51 106C159.511 105.999 159.512 105.999 159.513 105.998C159.514 105.997 159.515 105.997 159.516 105.996C159.517 105.996 159.518 105.995 159.519 105.995C159.519 105.994 159.52 105.994 159.521 105.993C159.522 105.993 159.523 105.992 159.524 105.992C159.525 105.991 159.526 105.991 159.527 105.99C159.528 105.989 159.529 105.989 159.53 105.988C159.531 105.988 159.531 105.987 159.532 105.987C159.533 105.986 159.534 105.986 159.535 105.985C159.536 105.985 159.537 105.984 159.538 105.984C159.539 105.983 159.54 105.983 159.541 105.982C159.542 105.981 159.543 105.981 159.543 105.98C159.544 105.98 159.545 105.979 159.546 105.979C159.547 105.978 159.548 105.978 159.549 105.977C159.55 105.977 159.551 105.976 159.552 105.976C159.553 105.975 159.554 105.975 159.555 105.974C159.555 105.974 159.556 105.973 159.557 105.972C159.558 105.972 159.559 105.971 159.56 105.971C159.561 105.97 159.562 105.97 159.563 105.969C159.564 105.969 159.565 105.968 159.566 105.968C159.566 105.967 159.567 105.967 159.568 105.966C159.569 105.966 159.57 105.965 159.571 105.964C159.572 105.964 159.573 105.963 159.574 105.963C159.575 105.962 159.576 105.962 159.577 105.961C159.577 105.961 159.578 105.96 159.579 105.96C159.58 105.959 159.581 105.959 159.582 105.958C159.583 105.958 159.584 105.957 159.585 105.957C159.586 105.956 159.587 105.955 159.588 105.955C159.588 105.954 159.589 105.954 159.59 105.953C159.591 105.953 159.592 105.952 159.593 105.952C159.594 105.951 159.595 105.951 159.596 105.95C159.597 105.95 159.598 105.949 159.599 105.949C159.599 105.948 159.6 105.948 159.601 105.947C159.602 105.946 159.603 105.946 159.604 105.945C159.605 105.945 159.606 105.944 159.607 105.944C159.608 105.943 159.609 105.943 159.61 105.942C159.61 105.942 159.611 105.941 159.612 105.941C159.613 105.94 159.614 105.94 159.615 105.939C159.616 105.939 159.617 105.938 159.618 105.938C159.619 105.937 159.62 105.936 159.62 105.936C159.621 105.935 159.622 105.935 159.623 105.934C159.624 105.934 159.625 105.933 159.626 105.933C159.627 105.932 159.628 105.932 159.629 105.931C159.63 105.931 159.63 105.93 159.631 105.93C159.632 105.929 159.633 105.929 159.634 105.928C159.635 105.928 159.636 105.927 159.637 105.927C159.638 105.926 159.639 105.925 159.64 105.925C159.64 105.924 159.641 105.924 159.642 105.923C159.643 105.923 159.644 105.922 159.645 105.922C159.646 105.921 159.647 105.921 159.648 105.92C159.649 105.92 159.65 105.919 159.65 105.919C159.651 105.918 159.652 105.918 159.653 105.917C159.654 105.917 159.655 105.916 159.656 105.916C159.657 105.915 159.658 105.914 159.659 105.914C159.66 105.913 159.66 105.913 159.661 105.912C159.662 105.912 159.663 105.911 159.664 105.911C159.665 105.91 159.666 105.91 159.667 105.909C159.668 105.909 159.669 105.908 159.669 105.908C159.67 105.907 159.671 105.907 159.672 105.906C159.673 105.906 159.674 105.905 159.675 105.905C159.676 105.904 159.677 105.903 159.678 105.903C159.678 105.902 159.679 105.902 159.68 105.901C159.681 105.901 159.682 105.9 159.683 105.9C159.684 105.899 159.685 105.899 159.686 105.898C159.687 105.898 159.688 105.897 159.688 105.897C159.689 105.896 159.69 105.896 159.691 105.895C159.692 105.895 159.693 105.894 159.694 105.894C159.695 105.893 159.696 105.893 159.697 105.892C159.697 105.892 159.698 105.891 159.699 105.89C159.7 105.89 159.701 105.889 159.702 105.889C159.703 105.888 159.704 105.888 159.705 105.887C159.706 105.887 159.706 105.886 159.707 105.886C159.708 105.885 159.709 105.885 159.71 105.884C159.711 105.884 159.712 105.883 159.713 105.883C159.714 105.882 159.714 105.882 159.715 105.881C159.716 105.881 159.717 105.88 159.718 105.88C159.719 105.879 159.72 105.879 159.721 105.878C159.722 105.878 159.723 105.877 159.723 105.876C159.724 105.876 159.725 105.875 159.726 105.875C159.727 105.874 159.728 105.874 159.729 105.873C159.73 105.873 159.731 105.872 159.732 105.872C159.732 105.871 159.733 105.871 159.734 105.87C159.735 105.87 159.736 105.869 159.737 105.869C159.738 105.868 159.739 105.868 159.74 105.867C159.74 105.867 159.741 105.866 159.742 105.866C159.743 105.865 159.744 105.865 159.745 105.864C159.746 105.864 159.747 105.863 159.748 105.863C159.748 105.862 159.749 105.862 159.75 105.861C159.751 105.861 159.752 105.86 159.753 105.859C159.754 105.859 159.755 105.858 159.756 105.858C159.757 105.857 159.757 105.857 159.758 105.856C159.759 105.856 159.76 105.855 159.761 105.855C159.762 105.854 159.763 105.854 159.764 105.853C159.765 105.853 159.765 105.852 159.766 105.852C159.767 105.851 159.768 105.851 159.769 105.85C159.77 105.85 159.771 105.849 159.772 105.849C159.773 105.848 159.773 105.848 159.774 105.847C159.775 105.847 159.776 105.846 159.777 105.846C159.778 105.845 159.779 105.845 159.78 105.844C159.781 105.844 159.781 105.843 159.782 105.843C159.783 105.842 159.784 105.842 159.785 105.841C159.786 105.84 159.787 105.84 159.788 105.839C159.788 105.839 159.789 105.838 159.79 105.838C159.791 105.837 159.792 105.837 159.793 105.836C159.794 105.836 159.795 105.835 159.796 105.835C159.796 105.834 159.797 105.834 159.798 105.833C159.799 105.833 159.8 105.832 159.801 105.832C159.802 105.831 159.803 105.831 159.804 105.83C159.804 105.83 159.805 105.829 159.806 105.829C159.807 105.828 159.808 105.828 159.809 105.827C159.81 105.827 159.811 105.826 159.811 105.826C159.812 105.825 159.813 105.825 159.814 105.824C159.815 105.824 159.816 105.823 159.817 105.823C159.818 105.822 159.819 105.822 159.819 105.821C159.82 105.821 159.821 105.82 159.822 105.82C159.823 105.819 159.824 105.819 159.825 105.818C159.826 105.818 159.826 105.817 159.827 105.817C159.828 105.816 159.829 105.816 159.83 105.815C159.831 105.814 159.832 105.814 159.833 105.813C159.833 105.813 159.834 105.812 159.835 105.812C159.836 105.811 159.837 105.811 159.838 105.81C159.839 105.81 159.84 105.809 159.841 105.809C159.841 105.808 159.842 105.808 159.843 105.807C159.844 105.807 159.845 105.806 159.846 105.806C159.847 105.805 159.848 105.805 159.848 105.804C159.849 105.804 159.85 105.803 159.851 105.803C159.852 105.802 159.853 105.802 159.854 105.801C159.855 105.801 159.855 105.8 159.856 105.8C159.857 105.799 159.858 105.799 159.859 105.798C159.86 105.798 159.861 105.797 159.862 105.797C159.862 105.796 159.863 105.796 159.864 105.795C159.865 105.795 159.866 105.794 159.867 105.794C159.868 105.793 159.869 105.793 159.869 105.792C159.87 105.792 159.871 105.791 159.872 105.791C159.873 105.79 159.874 105.79 159.875 105.789C159.876 105.789 159.876 105.788 159.877 105.788C159.878 105.787 159.879 105.787 159.88 105.786C159.881 105.786 159.882 105.785 159.883 105.785C159.883 105.784 159.884 105.784 159.885 105.783C159.886 105.783 159.887 105.782 159.888 105.782C159.889 105.781 159.889 105.781 159.89 105.78C159.891 105.78 159.892 105.779 159.893 105.779C159.894 105.778 159.895 105.778 159.896 105.777C159.896 105.777 159.897 105.776 159.898 105.776C159.899 105.775 159.9 105.775 159.901 105.774C159.902 105.774 159.903 105.773 159.903 105.773C159.904 105.772 159.905 105.772 159.906 105.771C159.907 105.771 159.908 105.77 159.909 105.77C159.909 105.769 159.91 105.769 159.911 105.768C159.912 105.768 159.913 105.767 159.914 105.767C159.915 105.766 159.916 105.766 159.916 105.765C159.917 105.765 159.918 105.764 159.919 105.764C159.92 105.763 159.921 105.763 159.922 105.762C159.922 105.762 159.923 105.761 159.924 105.761C159.925 105.76 159.926 105.76 159.927 105.759C159.928 105.759 159.929 105.758 159.929 105.758C159.93 105.757 159.931 105.757 159.932 105.756C159.933 105.756 159.934 105.755 159.935 105.755C159.935 105.754 159.936 105.754 159.937 105.753C159.938 105.753 159.939 105.752 159.94 105.752C159.941 105.751 159.941 105.751 159.942 105.75C159.943 105.75 159.944 105.749 159.945 105.749C159.946 105.748 159.947 105.748 159.948 105.747C159.948 105.747 159.949 105.746 159.95 105.746C159.951 105.745 159.952 105.745 159.953 105.744C159.954 105.744 159.954 105.743 159.955 105.743C159.956 105.742 159.957 105.742 159.958 105.741C159.959 105.741 159.96 105.74 159.96 105.74C159.961 105.739 159.962 105.739 159.963 105.738C159.964 105.738 159.965 105.737 159.966 105.737C159.966 105.736 159.967 105.736 159.968 105.735C159.969 105.735 159.97 105.734 159.971 105.734C159.972 105.733 159.972 105.733 159.973 105.732C159.974 105.732 159.975 105.731 159.976 105.731C159.977 105.73 159.978 105.73 159.978 105.729C159.979 105.729 159.98 105.728 159.981 105.728C159.982 105.727 159.983 105.727 159.984 105.726C159.984 105.726 159.985 105.725 159.986 105.725C159.987 105.724 159.988 105.724 159.989 105.723C159.99 105.723 159.99 105.722 159.991 105.722C159.992 105.721 159.993 105.721 159.994 105.72C159.995 105.72 159.996 105.719 159.996 105.719C159.997 105.718 159.998 105.718 159.999 105.717C160 105.717 160.001 105.716 160.002 105.716C160.002 105.715 160.003 105.715 160.004 105.714C160.005 105.714 160.006 105.713 160.007 105.713C160.008 105.713 160.008 105.712 160.009 105.712C160.01 105.711 160.011 105.711 160.012 105.71C160.013 105.71 160.013 105.709 160.014 105.709C160.015 105.708 160.016 105.708 160.017 105.707C160.018 105.707 160.019 105.706 160.019 105.706C160.02 105.705 160.021 105.705 160.022 105.704C160.023 105.704 160.024 105.703 160.025 105.703C160.025 105.702 160.026 105.702 160.027 105.701C160.028 105.701 160.029 105.7 160.03 105.7C160.03 105.699 160.031 105.699 160.032 105.698C160.033 105.698 160.034 105.697 160.035 105.697C160.036 105.696 160.036 105.696 160.037 105.695C160.038 105.695 160.039 105.694 160.04 105.694C160.041 105.693 160.041 105.693 160.042 105.692C160.043 105.692 160.044 105.691 160.045 105.691C160.046 105.69 160.047 105.69 160.047 105.689C160.048 105.689 160.049 105.688 160.05 105.688C160.051 105.688 160.052 105.687 160.052 105.687C160.053 105.686 160.054 105.686 160.055 105.685C160.056 105.685 160.057 105.684 160.058 105.684C160.058 105.683 160.059 105.683 160.06 105.682C160.061 105.682 160.062 105.681 160.063 105.681C160.063 105.68 160.064 105.68 160.065 105.679C160.066 105.679 160.067 105.678 160.068 105.678C160.069 105.677 160.069 105.677 160.07 105.676C160.071 105.676 160.072 105.675 160.073 105.675C160.074 105.674 160.074 105.674 160.075 105.673C160.076 105.673 160.077 105.672 160.078 105.672C160.079 105.671 160.079 105.671 160.08 105.67C160.081 105.67 160.082 105.67 160.083 105.669C160.084 105.669 160.085 105.668 160.085 105.668C160.086 105.667 160.087 105.667 160.088 105.666C160.089 105.666 160.09 105.665 160.09 105.665C160.091 105.664 160.092 105.664 160.093 105.663C160.094 105.663 160.095 105.662 160.095 105.662C160.096 105.661 160.097 105.661 160.098 105.66C160.099 105.66 160.1 105.659 160.1 105.659C160.101 105.658 160.102 105.658 160.103 105.657C160.104 105.657 160.105 105.656 160.105 105.656C160.106 105.655 160.107 105.655 160.108 105.654C160.109 105.654 160.11 105.654 160.11 105.653C160.111 105.653 160.112 105.652 160.113 105.652C160.114 105.651 160.115 105.651 160.115 105.65C160.116 105.65 160.117 105.649 160.118 105.649C160.119 105.648 160.12 105.648 160.121 105.647C160.121 105.647 160.122 105.646 160.123 105.646C160.124 105.645 160.125 105.645 160.126 105.644C160.126 105.644 160.127 105.643 160.128 105.643C160.129 105.642 160.13 105.642 160.131 105.641C160.131 105.641 160.132 105.641 160.133 105.64C160.134 105.64 160.135 105.639 160.136 105.639C160.136 105.638 160.137 105.638 160.138 105.637C160.139 105.637 160.14 105.636 160.14 105.636C160.141 105.635 160.142 105.635 160.143 105.634C160.144 105.634 160.145 105.633 160.145 105.633C160.146 105.632 160.147 105.632 160.148 105.631C160.149 105.631 160.15 105.63 160.15 105.63C160.151 105.629 160.152 105.629 160.153 105.629C160.154 105.628 160.155 105.628 160.155 105.627C160.156 105.627 160.157 105.626 160.158 105.626C160.159 105.625 160.16 105.625 160.16 105.624C160.161 105.624 160.162 105.623 160.163 105.623C160.164 105.622 160.165 105.622 160.165 105.621C160.166 105.621 160.167 105.62 160.168 105.62C160.169 105.619 160.169 105.619 160.17 105.619C160.171 105.618 160.172 105.618 160.173 105.617C160.174 105.617 160.174 105.616 160.175 105.616C160.176 105.615 160.177 105.615 160.178 105.614C160.179 105.614 160.179 105.613 160.18 105.613C160.181 105.612 160.182 105.612 160.183 105.611C160.184 105.611 160.184 105.61 160.185 105.61C160.186 105.609 160.187 105.609 160.188 105.609C160.188 105.608 160.189 105.608 160.19 105.607C160.191 105.607 160.192 105.606 160.193 105.606C160.193 105.605 160.194 105.605 160.195 105.604C160.196 105.604 160.197 105.603 160.198 105.603C160.198 105.602 160.199 105.602 160.2 105.601C160.201 105.601 160.202 105.6 160.202 105.6C160.203 105.599 160.204 105.599 160.205 105.599C160.206 105.598 160.207 105.598 160.207 105.597C160.208 105.597 160.209 105.596 160.21 105.596C160.211 105.595 160.211 105.595 160.212 105.594C160.213 105.594 160.214 105.593 160.215 105.593C160.216 105.592 160.216 105.592 160.217 105.591C160.218 105.591 160.219 105.59 160.22 105.59C160.22 105.59 160.221 105.589 160.222 105.589C160.223 105.588 160.224 105.588 160.225 105.587C160.225 105.587 160.226 105.586 160.227 105.586C160.228 105.585 160.229 105.585 160.229 105.584C160.23 105.584 160.231 105.583 160.232 105.583C160.233 105.582 160.234 105.582 160.234 105.582C160.235 105.581 160.236 105.581 160.237 105.58C160.238 105.58 160.238 105.579 160.239 105.579C160.24 105.578 160.241 105.578 160.242 105.577C160.243 105.577 160.243 105.576 160.244 105.576C160.245 105.575 160.246 105.575 160.247 105.574C160.247 105.574 160.248 105.574 160.249 105.573C160.25 105.573 160.251 105.572 160.251 105.572C160.252 105.571 160.253 105.571 160.254 105.57C160.255 105.57 160.256 105.569 160.256 105.569C160.257 105.568 160.258 105.568 160.259 105.567C160.26 105.567 160.26 105.566 160.261 105.566C160.262 105.566 160.263 105.565 160.264 105.565C160.264 105.564 160.265 105.564 160.266 105.563C160.267 105.563 160.268 105.562 160.269 105.562C160.269 105.561 160.27 105.561 160.271 105.56C160.272 105.56 160.273 105.559 160.273 105.559C160.274 105.559 160.275 105.558 160.276 105.558C160.277 105.557 160.277 105.557 160.278 105.556C160.279 105.556 160.28 105.555 160.281 105.555C160.281 105.554 160.282 105.554 160.283 105.553C160.284 105.553 160.285 105.552 160.285 105.552C160.286 105.552 160.287 105.551 160.288 105.551C160.289 105.55 160.29 105.55 160.29 105.549C160.291 105.549 160.292 105.548 160.293 105.548C160.294 105.547 160.294 105.547 160.295 105.546C160.296 105.546 160.297 105.545 160.298 105.545C160.298 105.545 160.299 105.544 160.3 105.544C160.301 105.543 160.302 105.543 160.302 105.542C160.303 105.542 160.304 105.541 160.305 105.541C160.306 105.54 160.306 105.54 160.307 105.539C160.308 105.539 160.309 105.539 160.31 105.538C160.31 105.538 160.311 105.537 160.312 105.537C160.313 105.536 160.314 105.536 160.314 105.535C160.315 105.535 160.316 105.534 160.317 105.534C160.318 105.533 160.318 105.533 160.319 105.532C160.32 105.532 160.321 105.532 160.322 105.531C160.322 105.531 160.323 105.53 160.324 105.53C160.325 105.529 160.326 105.529 160.326 105.528C160.327 105.528 160.328 105.527 160.329 105.527C160.33 105.526 160.33 105.526 160.331 105.526C160.332 105.525 160.333 105.525 160.334 105.524C160.334 105.524 160.335 105.523 160.336 105.523C160.337 105.522 160.338 105.522 160.338 105.521C160.339 105.521 160.34 105.52 160.341 105.52C160.342 105.52 160.342 105.519 160.343 105.519C160.344 105.518 160.345 105.518 160.346 105.517C160.346 105.517 160.347 105.516 160.348 105.516C160.349 105.515 160.35 105.515 160.35 105.515C160.351 105.514 160.352 105.514 160.353 105.513C160.354 105.513 160.354 105.512 160.355 105.512C160.356 105.511 160.357 105.511 160.358 105.51C160.358 105.51 160.359 105.509 160.36 105.509C160.361 105.509 160.362 105.508 160.362 105.508C160.363 105.507 160.364 105.507 160.365 105.506C160.366 105.506 160.366 105.505 160.367 105.505C160.368 105.504 160.369 105.504 160.37 105.503C160.37 105.503 160.371 105.503 160.372 105.502C160.373 105.502 160.373 105.501 160.374 105.501C160.375 105.5 160.376 105.5 160.377 105.499C160.377 105.499 160.378 105.498 160.379 105.498C160.38 105.498 160.381 105.497 160.381 105.497C160.382 105.496 160.383 105.496 160.384 105.495C160.385 105.495 160.385 105.494 160.386 105.494C160.387 105.493 160.388 105.493 160.389 105.493C160.389 105.492 160.39 105.492 160.391 105.491C160.392 105.491 160.392 105.49 160.393 105.49C160.394 105.489 160.395 105.489 160.396 105.488C160.396 105.488 160.397 105.488 160.398 105.487C160.399 105.487 160.4 105.486 160.4 105.486C160.401 105.485 160.402 105.485 160.403 105.484C160.404 105.484 160.404 105.483 160.405 105.483C160.406 105.483 160.407 105.482 160.407 105.482C160.408 105.481 160.409 105.481 160.41 105.48C160.411 105.48 160.411 105.479 160.412 105.479C160.413 105.478 160.414 105.478 160.415 105.478C160.415 105.477 160.416 105.477 160.417 105.476C160.418 105.476 160.418 105.475 160.419 105.475C160.42 105.474 160.421 105.474 160.422 105.473C160.422 105.473 160.423 105.473 160.424 105.472C160.425 105.472 160.426 105.471 160.426 105.471C160.427 105.47 160.428 105.47 160.429 105.469C160.429 105.469 160.43 105.468 160.431 105.468C160.432 105.468 160.433 105.467 160.433 105.467C160.434 105.466 160.435 105.466 160.436 105.465C160.436 105.465 160.437 105.464 160.438 105.464C160.439 105.463 160.44 105.463 160.44 105.463C160.441 105.462 160.442 105.462 160.443 105.461C160.444 105.461 160.444 105.46 160.445 105.46C160.446 105.459 160.447 105.459 160.447 105.459C160.448 105.458 160.449 105.458 160.45 105.457C160.451 105.457 160.451 105.456 160.452 105.456C160.453 105.455 160.454 105.455 160.454 105.454C160.455 105.454 160.456 105.454 160.457 105.453C160.458 105.453 160.458 105.452 160.459 105.452C160.46 105.451 160.461 105.451 160.461 105.45C160.462 105.45 160.463 105.45 160.464 105.449C160.465 105.449 160.465 105.448 160.466 105.448C160.467 105.447 160.468 105.447 160.468 105.446C160.469 105.446 160.47 105.445 160.471 105.445C160.472 105.445 160.472 105.444 160.473 105.444C160.474 105.443 160.475 105.443 160.475 105.442C160.476 105.442 160.477 105.441 160.478 105.441C160.479 105.441 160.479 105.44 160.48 105.44C160.481 105.439 160.482 105.439 160.482 105.438C160.483 105.438 160.484 105.437 160.485 105.437C160.485 105.437 160.486 105.436 160.487 105.436C160.488 105.435 160.489 105.435 160.489 105.434C160.49 105.434 160.491 105.433 160.492 105.433C160.492 105.433 160.493 105.432 160.494 105.432C160.495 105.431 160.496 105.431 160.496 105.43C160.497 105.43 160.498 105.429 160.499 105.429C160.499 105.429 160.5 105.428 160.501 105.428C160.502 105.427 160.502 105.427 160.503 105.426C160.504 105.426 160.505 105.425 160.506 105.425C160.506 105.425 160.507 105.424 160.508 105.424C160.509 105.423 160.509 105.423 160.51 105.422C160.511 105.422 160.512 105.421 160.512 105.421C160.513 105.421 160.514 105.42 160.515 105.42C160.516 105.419 160.516 105.419 160.517 105.418C160.518 105.418 160.519 105.417 160.519 105.417C160.52 105.417 160.521 105.416 160.522 105.416C160.522 105.415 160.523 105.415 160.524 105.414C160.525 105.414 160.526 105.413 160.526 105.413C160.527 105.413 160.528 105.412 160.529 105.412C160.529 105.411 160.53 105.411 160.531 105.41C160.532 105.41 160.532 105.409 160.533 105.409C160.534 105.409 160.535 105.408 160.535 105.408C160.536 105.407 160.537 105.407 160.538 105.406C160.539 105.406 160.539 105.405 160.54 105.405C160.541 105.405 160.542 105.404 160.542 105.404C160.543 105.403 160.544 105.403 160.545 105.402C160.545 105.402 160.546 105.402 160.547 105.401C160.548 105.401 160.548 105.4 160.549 105.4C160.55 105.399 160.551 105.399 160.551 105.398C160.552 105.398 160.553 105.398 160.554 105.397C160.555 105.397 160.555 105.396 160.556 105.396C160.557 105.395 160.558 105.395 160.558 105.394C160.559 105.394 160.56 105.394 160.561 105.393C160.561 105.393 160.562 105.392 160.563 105.392C160.564 105.391 160.564 105.391 160.565 105.391C160.566 105.39 160.567 105.39 160.567 105.389C160.568 105.389 160.569 105.388 160.57 105.388C160.571 105.387 160.571 105.387 160.572 105.387C160.573 105.386 160.574 105.386 160.574 105.385C160.575 105.385 160.576 105.384 160.577 105.384C160.577 105.384 160.578 105.383 160.579 105.383C160.58 105.382 160.58 105.382 160.581 105.381C160.582 105.381 160.583 105.38 160.583 105.38C160.584 105.38 160.585 105.379 160.586 105.379C160.586 105.378 160.587 105.378 160.588 105.377C160.589 105.377 160.589 105.377 160.59 105.376C160.591 105.376 160.592 105.375 160.592 105.375C160.593 105.374 160.594 105.374 160.595 105.373L159.773 104.899ZM159.278 105.659L138.475 93.6483L137.653 94.1229L158.456 106.134L159.278 105.659ZM137.632 93.6611C135.689 94.9071 134.42 96.1813 133.865 97.4847L134.994 97.645C135.492 96.4753 136.646 95.2967 138.496 94.1101L137.632 93.6611ZM133.861 97.4949C133.387 98.7802 133.438 100.003 134.03 101.157L135.145 100.966C134.614 99.9309 134.56 98.8226 134.998 97.6348L133.861 97.4949ZM134.032 101.161C134.657 102.327 135.706 103.337 137.179 104.188L138.001 103.713C136.664 102.941 135.713 102.026 135.143 100.963L134.032 101.161ZM137.179 104.188C139.069 105.279 141.119 105.958 143.329 106.196L143.542 105.536C141.61 105.328 139.763 104.73 138.001 103.713L137.179 104.188ZM143.329 106.196C145.52 106.432 147.675 106.28 149.779 105.748L149.312 105.133C147.413 105.614 145.495 105.746 143.542 105.536L143.329 106.196ZM149.134 105.678L153.505 108.201L154.327 107.727L149.956 105.203L149.134 105.678ZM153.636 107.67C150.618 108.629 147.367 109.002 143.866 108.786L143.743 109.453C147.475 109.683 150.965 109.285 154.197 108.258L153.636 107.67ZM143.867 108.786C140.48 108.573 137.279 107.614 134.262 105.872L133.439 106.347C136.601 108.172 140.036 109.22 143.742 109.453L143.867 108.786ZM157.909 92.2192C155.71 90.9498 153.062 90.2064 149.982 89.9947L149.845 90.6612C152.664 90.855 155.072 91.5306 157.087 92.6938L157.909 92.2192ZM149.984 89.9949C146.916 89.7788 143.971 90.3575 141.172 91.6798L141.908 92.1993C144.516 90.9674 147.153 90.4717 149.843 90.6611L149.984 89.9949ZM141.129 92.1769L157.561 101.664L158.383 101.189L141.951 91.7022L141.129 92.1769ZM158.401 101.653C160.735 100.179 161.846 98.5626 161.659 96.8144L160.499 96.8558C160.663 98.3915 159.703 99.8359 157.543 101.2L158.401 101.653ZM161.659 96.8144C161.474 95.0825 160.21 93.548 157.909 92.2192L157.087 92.6938C159.209 93.9191 160.333 95.3037 160.499 96.8558L161.659 96.8144ZM158.516 118.647L157.966 118.755L158.516 118.647ZM157.989 113.6L157.423 113.523L157.989 113.6ZM162.466 109.13L162.877 108.892L162.466 108.655L162.055 108.892L162.466 109.13ZM167.101 111.806L167.512 112.043L167.923 111.806L167.512 111.568L167.101 111.806ZM164.099 114.694L163.541 114.599L163.539 114.603L164.099 114.694ZM164.099 118.039L163.537 118.124L163.539 118.13L163.542 118.135L164.099 118.039ZM175.422 123.725L175.462 123.39L175.422 123.725ZM184.533 119.742L183.961 119.682L183.96 119.688L184.533 119.742ZM184.165 116.975L183.608 117.072L183.611 117.077L184.165 116.975ZM181.953 113.995L181.439 114.152L181.441 114.154L181.953 113.995ZM179.056 110.68L179.579 110.535L179.579 110.534L179.056 110.68ZM176.37 104.934L175.789 104.921L175.789 104.925L176.37 104.934ZM180.057 100.433L180.468 100.671L180.475 100.666L180.057 100.433ZM186.64 98.2136L186.769 98.5408L186.775 98.54L186.64 98.2136ZM194.224 98.4569L194.036 98.7744L194.04 98.7752L194.224 98.4569ZM206.548 105.572L205.995 105.676L205.996 105.678L206.548 105.572ZM206.969 110.011L206.404 109.933L206.402 109.939L206.969 110.011ZM203.23 113.934L202.819 114.171L203.237 114.413L203.648 114.167L203.23 113.934ZM198.595 111.258L198.184 111.021L197.773 111.258L198.184 111.495L198.595 111.258ZM200.807 109.069L200.253 108.967L200.251 108.972L200.807 109.069ZM200.86 106.241L200.296 106.322L200.298 106.327L200.86 106.241ZM197.805 103.383L197.387 103.616L197.394 103.62L197.805 103.383ZM191.327 101.406L191.388 101.073L191.38 101.072L191.327 101.406ZM182.743 105.694L182.161 105.701L182.162 105.707L182.743 105.694ZM184.428 109.099L183.905 109.245L183.91 109.251L184.428 109.099ZM188.167 113.387L188.693 113.244L188.687 113.237L188.167 113.387ZM190.695 117.4L190.131 117.482L190.695 117.4ZM190.695 121.171L190.133 121.084L190.131 121.091L190.695 121.171ZM180.425 126.918L180.57 127.243L180.576 127.242L180.425 126.918ZM172.473 126.705L172.644 126.384L172.64 126.383L172.473 126.705ZM164.51 123.336C161.856 121.803 160.05 120.204 159.066 118.539L157.966 118.755C159.018 120.536 160.934 122.221 163.688 123.81L164.51 123.336ZM159.066 118.539C158.08 116.87 157.915 115.252 158.555 113.676L157.423 113.523C156.729 115.231 156.915 116.978 157.966 118.755L159.066 118.539ZM158.555 113.676C159.195 112.102 160.627 110.666 162.877 109.367L162.055 108.892C159.671 110.269 158.118 111.813 157.423 113.523L158.555 113.676ZM162.055 109.367L166.69 112.043L167.512 111.568L162.877 108.892L162.055 109.367ZM166.69 111.568C165.184 112.438 164.131 113.449 163.541 114.599L164.656 114.79C165.189 113.75 166.139 112.836 167.512 112.043L166.69 111.568ZM163.539 114.603C162.982 115.739 162.985 116.915 163.537 118.124L164.661 117.954C164.159 116.852 164.162 115.798 164.658 114.786L163.539 114.603ZM163.542 118.135C164.173 119.357 165.482 120.528 167.427 121.651L168.249 121.177C166.402 120.111 165.218 119.032 164.656 117.943L163.542 118.135ZM167.427 121.651C169.982 123.127 172.634 123.951 175.382 124.06L175.462 123.39C173.083 123.296 170.68 122.58 168.249 121.177L167.427 121.651ZM175.382 124.06C178.11 124.168 180.452 123.667 182.364 122.564L181.542 122.089C179.872 123.053 177.86 123.485 175.462 123.39L175.382 124.06ZM182.364 122.564C183.894 121.68 184.836 120.758 185.107 119.796L183.96 119.688C183.739 120.469 182.961 121.27 181.542 122.089L182.364 122.564ZM185.105 119.802C185.405 118.85 185.271 117.872 184.718 116.873L183.611 117.077C184.112 117.983 184.223 118.849 183.961 119.682L185.105 119.802ZM184.721 116.877C184.216 115.919 183.462 114.905 182.464 113.836L181.441 114.154C182.41 115.193 183.13 116.165 183.608 117.072L184.721 116.877ZM182.466 113.838C181.522 112.808 180.56 111.707 179.579 110.535L178.532 110.826C179.518 112.005 180.487 113.114 181.439 114.152L182.466 113.838ZM179.579 110.534C177.739 108.35 176.884 106.489 176.951 104.942L175.789 104.925C175.715 106.621 176.651 108.592 178.533 110.827L179.579 110.534ZM176.951 104.946C177.05 103.403 178.2 101.98 180.468 100.671L179.646 100.196C177.208 101.603 175.901 103.18 175.789 104.921L176.951 104.946ZM180.475 100.666C182.336 99.5528 184.433 98.8491 186.769 98.5408L186.51 97.8864C183.931 98.2268 181.639 99.0029 179.638 100.2L180.475 100.666ZM186.775 98.54C189.155 98.211 191.57 98.287 194.036 98.7744L194.412 98.1394C191.751 97.6132 189.111 97.5269 186.505 97.8872L186.775 98.54ZM194.04 98.7752C196.571 99.2624 199.007 100.173 201.344 101.522L202.166 101.047C199.728 99.64 197.143 98.6649 194.408 98.1385L194.04 98.7752ZM201.344 101.522C203.646 102.851 205.186 104.236 205.995 105.676L207.101 105.469C206.224 103.908 204.57 102.435 202.166 101.047L201.344 101.522ZM205.996 105.678C206.843 107.144 206.973 108.56 206.404 109.933L207.534 110.09C208.159 108.584 208.008 107.041 207.099 105.466L205.996 105.678ZM206.402 109.939C205.865 111.333 204.674 112.587 202.812 113.701L203.648 114.167C205.648 112.971 206.95 111.609 207.537 110.084L206.402 109.939ZM203.641 113.697L199.006 111.021L198.184 111.495L202.819 114.171L203.641 113.697ZM199.006 111.495C200.098 110.865 200.882 110.085 201.364 109.166L200.251 108.972C199.819 109.796 199.128 110.476 198.184 111.021L199.006 111.495ZM201.361 109.171C201.889 108.212 201.904 107.204 201.422 106.155L200.298 106.327C200.729 107.265 200.708 108.142 200.253 108.967L201.361 109.171ZM201.424 106.16C200.97 105.112 199.883 104.108 198.216 103.145L197.394 103.62C198.958 104.523 199.907 105.424 200.296 106.322L201.424 106.16ZM198.223 103.15C196.182 101.929 193.902 101.224 191.388 101.073L191.267 101.74C193.458 101.872 195.496 102.485 197.387 103.616L198.223 103.15ZM191.38 101.072C188.867 100.94 186.614 101.464 184.649 102.598L185.471 103.073C187.228 102.058 189.153 101.629 191.275 101.741L191.38 101.072ZM184.649 102.598C182.992 103.555 182.122 104.591 182.161 105.701L183.324 105.687C183.293 104.81 183.968 103.941 185.471 103.073L184.649 102.598ZM182.162 105.707C182.236 106.781 182.829 107.962 183.905 109.245L184.951 108.953C183.92 107.723 183.389 106.634 183.323 105.68L182.162 105.707ZM183.91 109.251C184.997 110.487 186.243 111.916 187.647 113.537L188.687 113.237C187.282 111.614 186.035 110.185 184.946 108.947L183.91 109.251ZM187.641 113.53C188.751 114.891 189.58 116.208 190.131 117.482L191.259 117.319C190.687 115.998 189.831 114.639 188.693 113.244L187.641 113.53ZM190.131 117.482C190.671 118.728 190.668 119.926 190.134 121.084L191.257 121.257C191.846 119.983 191.843 118.668 191.259 117.319L190.131 117.482ZM190.131 121.091C189.636 122.251 188.407 123.416 186.387 124.582L187.209 125.057C189.332 123.831 190.701 122.564 191.26 121.251L190.131 121.091ZM186.387 124.582C184.706 125.553 182.673 126.223 180.275 126.594L180.576 127.242C183.163 126.842 185.378 126.114 187.209 125.057L186.387 124.582ZM180.281 126.593C177.944 126.94 175.403 126.876 172.644 126.384L172.301 127.026C175.23 127.547 177.991 127.626 180.57 127.243L180.281 126.593ZM172.64 126.383C169.949 125.917 167.238 124.911 164.51 123.336L163.688 123.81C166.507 125.438 169.379 126.519 172.306 127.026L172.64 126.383ZM183.434 134.006L183.023 133.769L182.612 134.006L183.023 134.244L183.434 134.006ZM220.3 112.722L220.711 112.484L220.3 112.247L219.889 112.484L220.3 112.722ZM224.724 115.276L225.135 115.513L225.546 115.276L225.135 115.038L224.724 115.276ZM187.858 136.561L187.447 136.798L187.858 137.035L188.269 136.798L187.858 136.561ZM183.845 134.244L220.711 112.959L219.889 112.484L183.023 133.769L183.845 134.244ZM219.889 112.959L224.313 115.513L225.135 115.038L220.711 112.484L219.889 112.959ZM224.313 115.038L187.447 136.323L188.269 136.798L225.135 115.513L224.313 115.038ZM188.269 136.323L183.845 133.769L183.023 134.244L187.447 136.798L188.269 136.323ZM195.675 141.074L195.264 140.836L194.853 141.074L195.264 141.311L195.675 141.074ZM232.541 119.789L232.952 119.551L232.541 119.314L232.13 119.551L232.541 119.789ZM237.702 122.769L238.256 122.871L238.364 122.676L238.113 122.531L237.702 122.769ZM225.273 145.27L224.719 145.168L224.376 145.789L225.452 145.589L225.273 145.27ZM264.141 138.033L264.552 137.796L264.301 137.651L263.963 137.714L264.141 138.033ZM269.355 141.043L269.766 141.281L270.177 141.043L269.766 140.806L269.355 141.043ZM232.488 162.328L232.077 162.565L232.488 162.803L232.899 162.565L232.488 162.328ZM228.064 159.774L227.653 159.537L227.242 159.774L227.653 160.011L228.064 159.774ZM257.031 143.05L257.442 143.287L256.856 142.73L257.031 143.05ZM221.007 149.618L220.596 149.855L220.846 149.999L221.182 149.938L221.007 149.618ZM217.689 147.702L217.135 147.602L217.029 147.796L217.278 147.94L217.689 147.702ZM229.012 126.934L229.567 127.035L228.601 126.697L229.012 126.934ZM200.099 143.628L199.688 143.865L200.099 144.102L200.51 143.865L200.099 143.628ZM196.086 141.311L232.952 120.026L232.13 119.551L195.264 140.836L196.086 141.311ZM232.13 120.026L237.291 123.006L238.113 122.531L232.952 119.551L232.13 120.026ZM237.149 122.667L224.719 145.168L225.827 145.372L238.256 122.871L237.149 122.667ZM225.452 145.589L264.319 138.352L263.963 137.714L225.095 144.95L225.452 145.589ZM263.73 138.27L268.944 141.281L269.766 140.806L264.552 137.796L263.73 138.27ZM268.944 140.806L232.077 162.091L232.899 162.565L269.766 141.281L268.944 140.806ZM232.899 162.091L228.476 159.537L227.653 160.011L232.077 162.565L232.899 162.091ZM228.475 160.011L257.442 143.287L256.62 142.813L227.653 159.537L228.475 160.011ZM256.856 142.73L220.832 149.298L221.182 149.938L257.206 143.37L256.856 142.73ZM221.418 149.381L218.1 147.465L217.278 147.94L220.596 149.855L221.418 149.381ZM218.244 147.803L229.567 127.035L228.458 126.834L217.135 147.602L218.244 147.803ZM228.601 126.697L199.688 143.39L200.51 143.865L229.424 127.172L228.601 126.697ZM200.51 143.391L196.086 140.836L195.264 141.311L199.688 143.865L200.51 143.391Z" fill="url(#paint2_radial_100_19)"/>
<defs>
<radialGradient id="paint0_radial_100_19" cx="0" cy="0" r="1" gradientUnits="userSpaceOnUse" gradientTransform="translate(148.186 31.5684) rotate(-2.20423) scale(303.038 154.12)">
<stop stop-color="white"/>
<stop offset="1" stop-color="white" stop-opacity="0"/>
</radialGradient>
<radialGradient id="paint1_radial_100_19" cx="0" cy="0" r="1" gradientUnits="userSpaceOnUse" gradientTransform="translate(221.892 101.334) rotate(142.012) scale(86.9422 129.724)">
<stop stop-color="white"/>
<stop offset="1" stop-color="white" stop-opacity="0"/>
</radialGradient>
<radialGradient id="paint2_radial_100_19" cx="0" cy="0" r="1" gradientUnits="userSpaceOnUse" gradientTransform="translate(199.051 93.4439) rotate(58.6589) scale(71.06 106.026)">
<stop stop-color="white"/>
<stop offset="0.241129" stop-color="white" stop-opacity="0"/>
</radialGradient>
</defs>
</svg>
