<svg width="23" height="24" viewBox="0 0 23 24" fill="none" xmlns="http://www.w3.org/2000/svg">
<path fill-rule="evenodd" clip-rule="evenodd" d="M0 9.83589C0 4.41263 4.41263 0 9.83589 0C15.2592 0 19.6718 4.41263 19.6718 9.83589C19.6713 12.0188 18.9402 14.1387 17.5952 15.8579L23 21.2627L21.2615 23.0012L15.8567 17.5964C14.1376 18.9408 12.0182 19.6713 9.83589 19.6718C4.41263 19.6718 0 15.2592 0 9.83589ZM13.9636 4.40296C14.105 4.44212 14.2311 4.51191 14.3346 4.6082L14.3566 4.62964C14.5547 4.82778 14.6491 5.11565 14.619 5.42994C14.589 5.74424 14.437 6.05921 14.1965 6.30559L12.0132 8.54146L13.2319 12.7088L13.253 12.7952C13.311 13.1166 13.1911 13.4844 12.9311 13.7636C12.704 14.0075 12.3584 14.0556 12.16 13.8709L12.1396 13.8501C12.1329 13.8429 12.1266 13.8355 12.1205 13.8278L9.74761 10.8619L8.0378 12.6127L8.33935 13.3319C8.3952 13.4649 8.40507 13.6209 8.36764 13.7788C8.3302 13.9368 8.24726 14.0891 8.13001 14.2153L8.07707 14.2667C7.85755 14.4588 7.55836 14.4859 7.37978 14.3197L6.80598 13.7854L6.38076 14.1113C6.23173 14.2254 6.05836 14.2909 5.88982 14.2969C5.72128 14.3029 5.56785 14.249 5.45535 14.1443C5.34284 14.0395 5.27814 13.8903 5.2721 13.7218C5.26607 13.5532 5.31909 13.3756 5.42224 13.2189L5.71662 12.7711L5.14361 12.2376C5.09758 12.1949 5.06237 12.1414 5.03998 12.0803C5.0176 12.0191 5.00848 11.9515 5.01315 11.8813C5.01782 11.8111 5.03618 11.7396 5.06719 11.671C5.0982 11.6024 5.14125 11.538 5.19387 11.4815C5.31139 11.3553 5.45757 11.2616 5.61265 11.213C5.76772 11.1644 5.92421 11.1632 6.06092 11.2096L6.79931 11.4604L8.42993 9.62346L5.25433 7.43488C5.19688 7.39539 5.15105 7.34197 5.11986 7.27817C5.08867 7.21436 5.07283 7.14162 5.07338 7.06474C5.07393 6.98786 5.09087 6.90859 5.12307 6.83216C5.15527 6.75573 5.202 6.68389 5.26018 6.62137C5.54374 6.31682 5.94494 6.17083 6.29089 6.24609L10.5991 7.17932L12.6509 4.86743C12.7662 4.73746 12.9018 4.62737 13.0496 4.54369C13.1974 4.46001 13.3545 4.40444 13.5115 4.38027C13.6685 4.35609 13.8222 4.36381 13.9636 4.40296Z" fill="#ECECEC"/>
</svg>
