<svg width="25" height="19" viewBox="0 0 25 19" fill="none" xmlns="http://www.w3.org/2000/svg">
<path fill-rule="evenodd" clip-rule="evenodd" d="M24.4927 18.5685H3.01098C2.87642 18.5685 2.74738 18.515 2.65224 18.4199L0.148595 15.9162C0.0534515 15.8211 0 15.692 0 15.5575L0 3.93057C0 3.65038 0.227142 3.42324 0.507335 3.42324H8.10262C8.38282 3.42324 8.60996 3.19609 8.60996 2.9159V0.507336C8.60996 0.227142 8.8371 0 9.11729 0L16.0902 0C16.3704 0 16.5975 0.227142 16.5975 0.507335V2.9159C16.5975 3.19609 16.8247 3.42324 17.1048 3.42324H24.4927C24.7729 3.42324 25 3.65038 25 3.93057V18.0611C25 18.3413 24.7729 18.5685 24.4927 18.5685ZM10.166 2.69709V2.07468C10.166 1.84552 10.3518 1.65974 10.5809 1.65974H14.3154C14.5445 1.65974 14.7303 1.84552 14.7303 2.07468V2.69709C14.7303 2.92625 14.5445 3.11202 14.3154 3.11202H10.5809C10.3518 3.11202 10.166 2.92625 10.166 2.69709Z" fill="#FF5000"/>
</svg>
