<svg width="12" height="120" viewBox="0 0 12 120" fill="none" xmlns="http://www.w3.org/2000/svg">
<path d="M5.46967 119.53C5.76256 119.823 6.23744 119.823 6.53033 119.53L11.3033 114.757C11.5962 114.464 11.5962 113.99 11.3033 113.697C11.0104 113.404 10.5355 113.404 10.2426 113.697L6 117.939L1.75736 113.697C1.46447 113.404 0.989593 113.404 0.696699 113.697C0.403806 113.99 0.403806 114.464 0.696699 114.757L5.46967 119.53ZM5.25 9V119H6.75V9H5.25Z" fill="url(#paint0_linear_178_172)"/>
<path fill-rule="evenodd" clip-rule="evenodd" d="M6 10C8.76142 10 11 7.76142 11 5C11 2.23858 8.76142 0 6 0C3.23858 0 1 2.23858 1 5C1 7.76142 3.23858 10 6 10ZM6 7C7.10457 7 8 6.10457 8 5C8 3.89543 7.10457 3 6 3C4.89543 3 4 3.89543 4 5C4 6.10457 4.89543 7 6 7Z" fill="#FF5000"/>
<defs>
<linearGradient id="paint0_linear_178_172" x1="6.5" y1="9" x2="6.5" y2="119" gradientUnits="userSpaceOnUse">
<stop stop-color="#FF5000"/>
<stop offset="1" stop-color="#FFC837"/>
</linearGradient>
</defs>
</svg>
